<?xml version="1.0" standalone="no"?>
<!DOCTYPE svg PUBLIC "-//W3C//DTD SVG 20010904//EN"
 "http://www.w3.org/TR/2001/REC-SVG-20010904/DTD/svg10.dtd">
<svg version="1.0" xmlns="http://www.w3.org/2000/svg"
 width="512.000000pt" height="512.000000pt" viewBox="0 0 512.000000 512.000000"
 preserveAspectRatio="xMidYMid meet">
<metadata>
Created by potrace 1.11, written by Peter Selinger 2001-2013
</metadata>
<g transform="translate(0.000000,512.000000) scale(0.100000,-0.100000)"
fill="#000000" stroke="none">
<path d="M1315 3829 c3 -73 7 -177 10 -229 3 -52 7 -156 10 -230 3 -74 7 -180
10 -235 3 -55 7 -156 10 -225 3 -69 7 -172 10 -230 3 -58 7 -161 10 -230 14
-369 24 -552 29 -557 2 -3 202 55 443 127 241 72 445 133 453 135 24 6 521
155 610 182 53 17 61 19 78 22 4 1 -27 33 -68 72 -41 39 -145 137 -230 219
-85 81 -175 167 -200 190 -25 23 -121 115 -215 204 -93 90 -182 174 -196 187
-15 13 -100 94 -189 179 -90 85 -178 169 -195 185 -49 46 -369 352 -378 361
-4 4 -5 -53 -2 -127z"/>
<path d="M2909 2275 c0 -6 -2 -18 -4 -28 -2 -10 -11 -64 -20 -120 -19 -113
-21 -121 -29 -157 -3 -14 -8 -41 -11 -60 -2 -19 -7 -46 -9 -60 -3 -14 -7 -43
-11 -65 -3 -22 -7 -47 -10 -55 -2 -8 -6 -33 -10 -55 -3 -22 -10 -67 -16 -100
-6 -33 -13 -69 -15 -80 -1 -11 -15 -87 -29 -169 -15 -81 -25 -149 -23 -151 3
-3 316 113 363 134 11 5 54 22 95 36 41 15 89 33 105 40 17 7 87 34 158 60 70
26 127 50 127 52 0 5 -59 83 -70 93 -3 3 -41 48 -85 100 -44 52 -82 97 -85
100 -3 3 -30 34 -60 70 -30 35 -65 76 -76 90 -12 14 -77 90 -144 170 -147 174
-140 166 -141 155z"/>
<path d="M3577 1488 c-37 -111 -66 -202 -65 -204 2 -1 32 -5 68 -8 36 -3 101
-8 144 -12 65 -5 78 -4 74 7 -3 8 -36 105 -73 217 -37 111 -70 202 -74 202 -3
0 -36 -91 -74 -202z"/>
</g>
</svg>
